<svg xmlns="http://www.w3.org/2000/svg">
  <path d="M22.3506 9.00055C21.8935 9.00055 21.5228 8.62745 21.5228 8.16724V4.83414C21.5228 4.37393 21.8935 4.00082 22.3506 4.00082C22.8078 4.00082 23.1784 4.37393 23.1784 4.83414V8.16732C23.1783 8.62745 22.8078 9.00055 22.3506 9.00055Z" fill="#FFA000"/>
  <path d="M22.3506 5.66736C23.7221 5.66736 24.8339 4.54813 24.8339 3.1675C24.8339 1.78686 23.7221 0.667633 22.3506 0.667633C20.9791 0.667633 19.8673 1.78686 19.8673 3.1675C19.8673 4.54813 20.9791 5.66736 22.3506 5.66736Z" fill="#FFC107"/>
  <path d="M19.0395 7.33398H25.6617C26.1188 7.33398 26.4894 7.70709 26.4894 8.1673V19.8333C26.4894 20.2935 26.1188 20.6666 25.6617 20.6666H19.0395C18.5824 20.6666 18.2117 20.2935 18.2117 19.8333V8.16722C18.2117 7.70701 18.5824 7.33398 19.0395 7.33398Z" fill="#FFD54F"/>
  <path d="M35.2042 20.6666H4.53041C2.96135 20.6716 1.52576 19.7784 0.82865 18.3633L0.0886247 16.8718C-0.115705 16.4599 0.0502887 15.9592 0.459491 15.7535C0.868616 15.5478 1.36598 15.7149 1.57038 16.1268L2.31041 17.6184C2.72885 18.4668 3.58954 19.0023 4.53049 18.9999H35.2043C36.1459 19.003 37.0073 18.4672 37.426 17.6184L38.166 16.1268C38.3704 15.7149 38.8677 15.5478 39.2769 15.7535C39.6861 15.9591 39.8521 16.4598 39.6478 16.8718L38.9078 18.3633C38.2102 19.779 36.7739 20.6723 35.2042 20.6666Z" fill="#CFD8DC"/>
  <path d="M7.45078 23.9997C6.99362 23.9997 6.62299 23.6266 6.62299 23.1664V19.8332C6.62299 19.373 6.99362 18.9999 7.45078 18.9999C7.90794 18.9999 8.27858 19.373 8.27858 19.8332V23.1664C8.2785 23.6266 7.90794 23.9997 7.45078 23.9997Z" fill="#CFD8DC"/>
  <path d="M32.2838 23.9997C31.8267 23.9997 31.4561 23.6266 31.4561 23.1664V19.8332C31.4561 19.373 31.8267 18.9999 32.2838 18.9999C32.741 18.9999 33.1116 19.373 33.1116 19.8332V23.1664C33.1115 23.6266 32.741 23.9997 32.2838 23.9997Z" fill="#CFD8DC"/>
  <path d="M39.651 23.5331L36.522 29.8328H3.21254L0.0835735 23.5331C-0.0386518 23.2776 -0.0262353 22.9775 0.11671 22.7332C0.272305 22.488 0.539649 22.3378 0.828566 22.3332H38.906C39.1949 22.3378 39.4623 22.488 39.6178 22.7332C39.7608 22.9775 39.7732 23.2776 39.651 23.5331Z" fill="#607D8B"/>
  <path d="M39.6178 36.9324C39.4622 37.1775 39.1949 37.3277 38.906 37.3324H0.828566C0.539649 37.3277 0.272227 37.1775 0.11671 36.9324C-0.0262353 36.688 -0.0386518 36.388 0.0835735 36.1324L3.21254 29.8328H36.522L39.651 36.1324C39.7732 36.388 39.7608 36.6879 39.6178 36.9324Z" fill="#455A64"/>
  <path d="M17.384 33.9992H5.79517C5.33801 33.9992 4.96738 33.6261 4.96738 33.1659C4.96738 32.7057 5.33801 32.3326 5.79517 32.3326H17.3839C17.8411 32.3326 18.2117 32.7057 18.2117 33.1659C18.2117 33.6261 17.8412 33.9992 17.384 33.9992Z" fill="#B0BEC5"/>
  <path d="M24.0061 33.9992H22.3506C21.8934 33.9992 21.5228 33.6261 21.5228 33.1659C21.5228 32.7057 21.8934 32.3326 22.3506 32.3326H24.0061C24.4633 32.3326 24.8339 32.7057 24.8339 33.1659C24.8339 33.6261 24.4633 33.9992 24.0061 33.9992Z" fill="#B0BEC5"/>
  <path d="M28.9727 33.9992H27.3172C26.86 33.9992 26.4894 33.6261 26.4894 33.1659C26.4894 32.7057 26.86 32.3326 27.3172 32.3326H28.9727C29.4299 32.3326 29.8005 32.7057 29.8005 33.1659C29.8005 33.6261 29.4299 33.9992 28.9727 33.9992Z" fill="#B0BEC5"/>
  <path d="M33.9394 33.9992H32.2838C31.8267 33.9992 31.4561 33.6261 31.4561 33.1659C31.4561 32.7057 31.8267 32.3326 32.2838 32.3326H33.9394C34.3965 32.3326 34.7672 32.7057 34.7672 33.1659C34.7672 33.6261 34.3965 33.9992 33.9394 33.9992Z" fill="#B0BEC5"/>
</svg>